<?xml version="1.0" encoding="UTF-8" standalone="no"?>
<!-- Created with Inkscape (http://www.inkscape.org/) -->
<svg
   xmlns:dc="http://purl.org/dc/elements/1.1/"
   xmlns:cc="http://web.resource.org/cc/"
   xmlns:rdf="http://www.w3.org/1999/02/22-rdf-syntax-ns#"
   xmlns:svg="http://www.w3.org/2000/svg"
   xmlns="http://www.w3.org/2000/svg"
   xmlns:xlink="http://www.w3.org/1999/xlink"
   xmlns:sodipodi="http://sodipodi.sourceforge.net/DTD/sodipodi-0.dtd"
   xmlns:inkscape="http://www.inkscape.org/namespaces/inkscape"
   width="389.28589"
   height="394.43549"
   id="svg1912"
   sodipodi:version="0.32"
   inkscape:version="0.44"
   version="1.0"
   sodipodi:docbase="C:\Documents and Settings\nicolas\Mes documents\Nicolas"
   sodipodi:docname="caverne.svg">
  <defs
     id="defs3">
    <linearGradient
       inkscape:collect="always"
       id="linearGradient3672">
      <stop
         style="stop-color:#fb9000;stop-opacity:1;"
         offset="0"
         id="stop3674" />
      <stop
         style="stop-color:#fb9000;stop-opacity:0;"
         offset="1"
         id="stop3676" />
    </linearGradient>
    <radialGradient
       inkscape:collect="always"
       xlink:href="#linearGradient3672"
       id="radialGradient3678"
       cx="1183.588"
       cy="399.0578"
       fx="1183.588"
       fy="399.0578"
       r="149.5511"
       gradientTransform="matrix(0.222935,0,0,0.178708,181.3099,185.3919)"
       gradientUnits="userSpaceOnUse" />
    <marker
       inkscape:stockid="Arrow1Lstart"
       orient="auto"
       refY="0"
       refX="0"
       id="Arrow1Lstart"
       style="overflow:visible">
      <path
         id="path7489"
         d="M 0,0 L 5,-5 L -12.5,0 L 5,5 L 0,0 z "
         style="fill-rule:evenodd;stroke:black;stroke-width:1pt;marker-start:none"
         transform="matrix(0.8,0,0,0.8,10,0)" />
    </marker>
  </defs>
  <sodipodi:namedview
     inkscape:document-units="mm"
     id="base"
     pagecolor="#ffffff"
     bordercolor="#666666"
     borderopacity="1.0"
     inkscape:pageopacity="0.0"
     inkscape:pageshadow="2"
     inkscape:zoom="0.35"
     inkscape:cx="350"
     inkscape:cy="520"
     inkscape:current-layer="layer1"
     inkscape:window-width="939"
     inkscape:window-height="573"
     inkscape:window-x="66"
     inkscape:window-y="87" />
  <metadata
     id="metadata4">
    <rdf:RDF>
      <cc:Work
         rdf:about="">
        <dc:format>image/svg+xml</dc:format>
        <dc:type
           rdf:resource="http://purl.org/dc/dcmitype/StillImage" />
      </cc:Work>
    </rdf:RDF>
  </metadata>
  <g
     inkscape:label="Layer 1"
     inkscape:groupmode="layer"
     id="layer1"
     transform="translate(-159.6428,-40.8587)">
    <path
       style="fill:none;fill-rule:evenodd;stroke:black;stroke-width:3.74052787;stroke-linecap:butt;stroke-linejoin:miter;stroke-miterlimit:4;stroke-dasharray:none;stroke-opacity:1"
       d="M 476.49428,200.66017 L 478.34349,200.08827 L 475.87789,283.01393 L 418.55253,284.15773 L 416.70333,338.48832 L 319.31187,339.63219 L 219.40689,431.78292 L 161.51302,432.28016 L 165.07452,345.21738 L 265.32915,341.50355 L 400.04816,211.72467 L 399.22766,201.87868"
       id="path1886"
       sodipodi:nodetypes="cccccccccccc" />
    <path
       style="fill:#002900;fill-opacity:1;fill-rule:evenodd;stroke:black;stroke-width:0.21341522px;stroke-linecap:butt;stroke-linejoin:miter;stroke-opacity:1"
       d="M 339.91153,337.05964 L 338.63761,286.27605 L 343.73327,286.27605 L 343.73327,337.64344 L 343.73327,337.05964"
       id="path1888" />
    <path
       sodipodi:type="arc"
       style="opacity:1;fill:#fffe00;fill-opacity:1;fill-rule:evenodd;stroke:#fbfc00;stroke-width:18.79999924;stroke-linecap:butt;stroke-linejoin:miter;stroke-miterlimit:4;stroke-dasharray:none;stroke-opacity:1"
       id="path1894"
       sodipodi:cx="714.28571"
       sodipodi:cy="-611.92352"
       sodipodi:rx="237.14285"
       sodipodi:ry="192.85715"
       d="M 951.42856 -611.92352 A 237.14285 192.85715 0 1 1  477.14285,-611.92352 A 237.14285 192.85715 0 1 1  951.42856 -611.92352 z"
       transform="matrix(0.222935,0,0,0.204302,334.8158,207.2831)" />
    <path
       style="opacity:1;fill:#f83d11;fill-opacity:1;fill-rule:evenodd;stroke:url(#radialGradient3678);stroke-width:4.01220608;stroke-linecap:butt;stroke-linejoin:miter;stroke-miterlimit:4;stroke-dasharray:none;stroke-opacity:1"
       id="path2785"
       d="M 434.95196,281.45592 C 436.26188,280.22039 436.94779,278.57005 437.71339,277.02507 C 438.91909,274.1637 439.49167,271.17977 439.96291,268.16326 C 440.42963,263.38777 438.96562,258.83093 437.30517,254.36209 C 434.95446,248.95672 431.55336,243.99448 427.45223,239.56818 C 422.75733,234.69951 421.08794,237.58463 431.91079,232.44284 C 433.52756,233.81758 437.0002,236.68462 439.23423,238.49212 C 442.45729,240.92646 445.65919,243.35863 448.59853,246.07449 C 450.11237,247.81629 450.54571,250.00825 451.08093,252.12494 C 451.58425,254.94556 451.56802,257.80776 451.62378,260.65629 C 451.60409,263.42721 451.65343,266.19778 451.70029,268.96823 C 451.70992,270.44809 451.36517,271.88765 451.07464,273.33059 C 450.14487,278.51119 450.47921,276.3117 441.9422,280.13662 C 441.73567,276.83984 442.69454,273.57585 443.42739,270.36668 C 444.13592,266.69833 445.08688,263.07353 446.06674,259.45921 C 447.1412,255.42211 448.29783,251.4055 449.48659,247.39601 C 450.08851,245.37431 450.86018,243.39987 451.59551,241.41873 C 453.89252,237.48796 458.97582,236.39316 463.09193,234.33284 C 464.48496,234.06301 465.90992,234.11704 467.32344,234.10824 C 469.23823,234.14917 471.15353,234.14014 473.06863,234.13968 C 475.17753,233.60734 475.34181,234.57471 476.41698,235.24528 C 474.35459,237.33318 471.46706,238.63726 468.84281,240.07605 C 440.68025,255.35223 481.66837,232.83461 454.36757,247.76978 C 452.11336,249.00296 458.9273,245.38406 461.20717,244.19119 C 458.5987,245.70903 456.66516,247.86272 454.7872,250.05958 C 453.11144,252.29842 452.08717,254.8259 451.10855,257.36383 C 450.02959,260.48342 449.63546,263.74139 449.13832,266.96754 C 448.74247,269.5674 448.61908,272.18859 448.56484,274.80924 C 446.16639,275.28168 437.84838,281.30538 444.95398,275.28147 C 447.76432,272.8011 450.32404,270.10491 452.84406,267.38049 C 454.41555,265.7197 455.67317,263.83892 456.97758,262.00144 C 460.31102,258.44821 464.55875,256.97459 469.1874,254.53567 C 470.96051,253.60125 472.88868,253.04196 474.81568,252.459 C 468.61807,257.74898 466.51773,256.89806 459.93071,258.1846 C 455.71287,259.07736 451.75212,260.63749 447.85221,262.31037 C 450.53911,263.59118 455.21874,257.11282 449.78815,262.19834 C 448.24484,264.29672 447.57708,266.76656 446.81097,269.16374 C 446.27062,270.80196 446.16822,272.50104 446.02322,274.19236 C 445.95842,279.80932 446.27086,277.43971 437.22048,281.24482 C 435.7733,277.53126 434.25625,273.84067 432.70482,270.1625 C 431.32962,266.65565 430.05905,263.11653 428.74005,259.59206 C 428.19957,257.53492 427.00511,255.92425 425.68061,254.28116 C 424.45903,253.31215 422.98207,253.34503 421.46408,253.188 C 420.02644,253.13757 418.58744,253.16726 417.14935,253.18042 C 416.07554,253.19209 415.00166,253.19353 413.92781,253.19756 L 421.52672,248.13462 C 422.59782,248.12984 423.66891,248.12615 424.73998,248.1182 C 426.18526,248.11913 427.6332,248.09459 429.07475,248.21185 C 430.7934,248.50167 432.39378,248.59917 433.67613,249.84404 C 434.99904,251.63208 436.20974,253.38435 436.77392,255.54964 C 437.95706,259.11036 439.13683,262.67174 440.5538,266.16251 C 442.0106,269.74598 443.37654,273.39143 445.3136,276.78504 C 434.64719,282.40061 437.77082,283.25056 437.65799,278.05129 C 437.8107,276.28722 437.9273,274.51731 438.45728,272.8019 C 439.25938,270.34023 440.03265,267.86376 441.23318,265.53214 C 444.87879,261.62402 449.98908,259.4593 454.99058,257.09403 C 458.93758,255.51148 462.94687,254.07519 467.14547,253.13456 C 472.29533,252.05113 482.48603,250.56801 467.40249,257.71591 C 465.52924,258.33335 463.6519,258.93124 461.93793,259.89075 C 475.65528,252.58069 468.16569,256.07939 465.55057,258.61458 C 464.16131,260.45682 462.79712,262.33617 461.28986,264.10276 C 458.71587,266.83078 456.10501,269.52493 453.35723,272.10875 C 450.30001,274.83711 443.06869,282.79483 440.232,278.66189 C 440.42972,275.98633 440.62945,273.30929 440.98857,270.64679 C 441.48763,267.40014 441.86653,264.12714 442.77299,260.94754 C 443.7395,258.34173 444.78533,255.77055 446.35932,253.40842 C 448.18309,251.14106 450.08472,248.94175 452.59254,247.25819 C 473.68892,235.94025 457.09436,244.85252 454.81424,246.04489 C 450.84582,248.12013 470.60903,237.61851 466.65704,239.71992 C 464.54616,240.84234 462.43051,241.95718 460.31724,243.07581 C 462.83816,241.71314 465.34366,240.31307 467.80342,238.88241 C 467.03964,238.97725 466.27078,239.29134 465.51207,239.16694 C 463.59128,239.15103 461.67019,239.123 459.74942,239.15776 C 458.38337,239.21127 456.99983,239.17569 455.69201,239.60794 C 472.36048,230.43432 462.63344,234.95768 460.08536,237.8528 C 459.26119,239.82621 458.38096,241.79982 457.71779,243.83404 C 456.39523,247.81088 455.1225,251.80059 454.20969,255.87954 C 453.26264,259.49318 452.24804,263.09446 451.56773,266.76024 C 450.87291,269.71515 450.07545,272.68331 450.12456,275.72764 C 439.19372,281.29148 441.91007,282.01695 442.63526,277.05592 C 442.95597,275.6552 443.30788,274.26154 443.43132,272.82714 C 443.49024,270.04076 443.55768,267.25362 443.48964,264.46674 C 443.43314,261.67749 443.42327,258.87442 442.93908,256.11243 C 442.43839,254.14868 442.00808,252.11362 440.70857,250.44011 C 437.94723,247.65743 434.87659,245.18839 431.70979,242.78919 C 428.78355,240.54139 425.51378,238.45577 423.10078,235.76299 C 432.10156,231.41727 430.61793,230.03731 435.18383,235.33457 C 439.03263,240.03817 442.35198,245.10615 444.91024,250.50474 C 446.73127,254.9809 448.44936,259.60525 448.13609,264.4532 C 447.70621,267.51374 447.18706,270.53484 446.04871,273.45865 C 445.3739,275.05426 444.6833,276.62242 443.75413,278.11468 L 434.95196,281.45592 z " />
    <g
       id="g6393"
       transform="matrix(4.084437e-2,0,0,4.166595e-2,320.7303,290.9608)">
      <path
         d="M 1061.912,251.56642 C 1061.6163,255.77492 1061.6946,259.99568 1061.6198,264.2103 C 1061.5292,272.12011 1061.4763,280.03022 1061.4539,287.94054 C 1061.1997,299.75225 1061.2605,311.56812 1061.2848,323.38158 C 1060.722,335.95971 1061.5259,348.46612 1062.4973,360.99401 C 1063.5392,373.86433 1066.7541,386.36612 1069.8351,398.85454 C 1073.0712,409.48874 1076.4608,420.05276 1079.4035,430.77172 C 1082.5971,443.62974 1086.7831,456.22985 1090.7298,468.87518 C 1095.4056,482.42485 1099.8066,496.06598 1104.346,509.66085 C 1107.8324,520.69655 1112.184,531.41737 1115.8888,542.37477 C 1118.1907,549.1344 1118.3216,556.17663 1118.7407,563.20307 C 1118.8818,570.66195 1118.7395,578.12269 1118.6662,585.58178 C 1118.6838,594.379 1118.5771,603.17437 1118.5838,611.97143 C 1119.0342,620.90415 1117.8934,629.74589 1116.9357,638.60213 C 1116.4035,648.26543 1115.5879,657.88355 1114.5343,667.5032 C 1112.9186,679.3113 1109.8666,690.84971 1106.9847,702.39342 C 1104.0971,712.24041 1102.8299,722.42339 1101.1633,732.51771 C 1099.1354,742.02973 1096.758,751.4486 1094.8033,760.97362 C 1093.9565,768.17461 1092.7282,775.30828 1091.455,782.44391 L 1053.666,800.94502 C 1055.0116,793.72472 1056.4766,786.53331 1057.3241,779.23291 C 1059.161,769.68289 1061.4872,760.26766 1063.7021,750.79778 C 1065.544,740.57335 1066.6852,730.19778 1069.6539,720.21148 C 1072.5318,708.89102 1075.7269,697.60635 1077.2393,685.99454 C 1078.3511,676.40457 1079.2398,666.83684 1079.6212,657.18705 C 1080.429,648.43478 1081.7829,639.71583 1081.4199,630.90518 C 1081.437,622.11833 1081.3363,613.33278 1081.4159,604.54594 C 1081.3956,597.15257 1081.3827,589.75931 1081.356,582.36599 C 1081.067,575.66108 1081.0468,568.91473 1079.2444,562.38262 C 1075.9569,551.30888 1071.8166,540.54574 1068.4035,529.50582 C 1063.8099,515.89598 1059.499,502.19663 1054.6979,488.65787 C 1050.6781,475.99642 1046.5656,463.35986 1042.9053,450.59038 C 1040.0285,439.82952 1036.7755,429.19369 1033.4957,418.549 C 1030.4405,405.82694 1027.3254,393.08231 1025.8047,380.0605 C 1024.7846,367.43464 1024.1226,354.83799 1024.4295,342.1603 C 1024.4536,330.40431 1024.5163,318.64582 1024.2604,306.8916 C 1024.2381,299.03763 1024.1855,291.18386 1024.0945,283.33041 C 1024.0201,279.2151 1024.1038,275.09307 1023.8022,270.98433 L 1061.912,251.56642 z "
         id="path6375"
         style="opacity:1;fill:black;fill-opacity:1;fill-rule:evenodd;stroke:#000100;stroke-width:15.60000038;stroke-linecap:butt;stroke-linejoin:miter;stroke-miterlimit:4;stroke-dasharray:none;stroke-opacity:1" />
      <path
         d="M 1247.6263,228.70928 C 1247.3539,231.73427 1245.3553,235.16505 1243.8199,238.12056 C 1240.6319,244.46031 1238.2542,251.14798 1235.6958,257.75261 C 1232.4933,265.26929 1229.4705,272.85436 1226.3575,280.40841 C 1223.3647,286.75805 1220.967,293.35286 1218.4671,299.90138 C 1215.4213,307.37752 1214.6736,315.33933 1213.5847,323.23522 C 1212.8186,331.40946 1212.9477,339.63025 1212.8936,347.83024 C 1212.3249,357.08645 1214.4476,365.92702 1216.7287,374.79678 C 1220.2492,385.74683 1225.1303,396.18491 1229.272,406.90569 C 1232.3716,414.76926 1234.0566,423.02691 1235.8984,431.23794 C 1238.2591,441.67542 1242.1593,451.59912 1246.0573,461.52667 C 1250.5744,468.31066 1252.5639,475.75988 1254.7338,483.40031 C 1256.0805,492.53878 1257.7906,501.55064 1259.9727,510.52077 C 1262.4161,520.85477 1263.6301,531.43566 1265.1117,541.9398 C 1266.5473,553.99459 1267.9009,566.04398 1268.9424,578.13853 C 1269.7782,587.9302 1269.9293,597.75251 1270.0176,607.57213 C 1270.0487,616.86519 1270.0165,626.15746 1270.0396,635.45044 C 1270.0235,644.78043 1270.0108,654.11017 1269.969,663.44012 C 1270.1345,672.82808 1270.0357,682.18002 1269.3561,691.53679 C 1268.563,701.37234 1266.772,711.0532 1264.9038,720.72742 C 1262.4243,731.71297 1260.191,742.75058 1257.7992,753.75478 C 1255.9621,761.15105 1254.4382,768.62476 1252.8764,776.07592 C 1251.3187,781.17666 1249.8386,786.30103 1248.2754,791.40013 L 1210.023,809.29471 C 1211.5794,804.26636 1213.1939,799.19696 1214.7964,794.15936 C 1216.7153,786.69381 1218.503,779.20574 1220.3701,771.70282 C 1222.8698,760.77846 1225.1874,749.81448 1227.5395,738.85107 C 1229.4786,729.34083 1231.2218,719.79803 1231.8737,710.09654 C 1232.5876,700.85039 1233.3816,691.64958 1232.8893,682.33244 C 1232.8511,673.02025 1232.8412,663.70832 1232.8462,654.39608 C 1232.8907,645.10467 1232.9012,635.81339 1232.8799,626.52194 C 1232.7984,616.73537 1232.7855,606.9434 1232.2476,597.16802 C 1231.3067,585.14803 1229.9847,573.19419 1228.4094,561.24192 C 1226.9475,550.91069 1225.649,540.5262 1223.379,530.33652 C 1221.0669,521.31123 1219.2215,512.25661 1217.7203,503.06188 C 1215.8017,495.64303 1213.8978,488.44223 1209.7728,481.77713 C 1205.8976,471.6165 1202.0629,461.4552 1199.042,450.9971 C 1197.2619,442.93259 1195.6693,434.79683 1192.814,427.0218 C 1188.9886,416.06334 1184.3072,405.48901 1180.1757,394.64344 C 1177.6655,385.52928 1175.2599,376.38372 1175.5857,366.83035 C 1175.6491,358.51745 1175.6524,350.20294 1176.0731,341.89715 C 1177.0799,333.78696 1177.7288,325.59493 1180.3981,317.79607 C 1182.8963,311.12276 1185.065,304.28905 1188.3555,297.93018 C 1191.5375,290.41606 1194.4789,282.82041 1197.6998,275.32543 C 1200.2067,268.72934 1202.6172,262.08694 1205.3731,255.58513 C 1206.2406,253.39893 1208.0153,247.3822 1209.5165,248.12718 L 1247.6263,228.70928 z "
         id="path6377"
         style="opacity:1;fill:black;fill-opacity:1;fill-rule:evenodd;stroke:#000100;stroke-width:15.60000038;stroke-linecap:butt;stroke-linejoin:miter;stroke-miterlimit:4;stroke-dasharray:none;stroke-opacity:1" />
      <path
         d="M 1264.7692,225.85214 C 1267.0289,234.76334 1272.3193,242.74944 1276.8894,250.69686 C 1282.3593,262.05372 1287.3712,273.62691 1292.6385,285.08102 C 1298.26,296.5449 1304.4861,307.70383 1310.3621,319.04345 C 1314.1124,328.52922 1318.5717,337.69519 1322.9675,346.89032 C 1327.2943,354.532 1331.5186,362.111 1335.0329,370.16206 C 1338.0535,378.82458 1341.9379,387.06911 1346.1168,395.21428 C 1350.4715,403.16619 1355.6681,410.63833 1360.626,418.22771 C 1364.6393,423.79816 1366.772,430.09945 1369.0876,436.44319 C 1370.8139,444.24921 1372.6692,452.02959 1374.5077,459.81243 C 1377.102,467.78759 1377.5867,476.15149 1378.2477,484.44481 C 1378.7126,491.30123 1378.7209,498.17339 1378.796,505.04104 C 1379.9491,510.96374 1376.8716,514.44358 1374.596,519.196 C 1371.6502,522.76766 1367.9979,525.59148 1364.5919,528.63191 C 1364.0118,529.07495 1363.4318,529.51798 1362.8517,529.96102 L 1323.4435,545.38016 C 1324.0601,545.02545 1324.6768,544.67075 1325.2934,544.31605 C 1328.8195,541.44668 1332.8277,539.2365 1335.5254,535.38601 C 1338.2503,531.46174 1342.3376,530.09161 1341.2857,524.15414 C 1341.3039,517.31744 1341.3833,510.47791 1341.1147,503.64443 C 1340.4648,495.62168 1340.2567,487.52207 1337.6861,479.79462 C 1335.8787,472.09165 1334.0739,464.37834 1332.2595,456.67731 C 1330.1261,450.63455 1328.1045,444.67416 1324.4065,439.33048 C 1319.5471,431.57188 1314.5882,423.86362 1310.0655,415.90344 C 1305.6669,407.67909 1301.6499,399.31195 1298.4832,390.51493 C 1294.8167,382.7066 1291.1688,374.91325 1286.7357,367.4644 C 1282.4651,358.20484 1277.9932,349.03704 1274.1443,339.5876 C 1268.6345,328.0359 1262.9947,316.5673 1256.6279,305.45211 C 1251.407,294.09305 1246.6718,282.51581 1241.1865,271.28984 C 1236.2186,262.69511 1231.0809,254.1559 1226.6594,245.27004 L 1264.7692,225.85214 z "
         id="path6381"
         style="opacity:1;fill:black;fill-opacity:1;fill-rule:evenodd;stroke:#000100;stroke-width:15.60000038;stroke-linecap:butt;stroke-linejoin:miter;stroke-miterlimit:4;stroke-dasharray:none;stroke-opacity:1" />
      <path
         d="M 1041.912,194.42356 C 1041.8859,199.71623 1040.9672,204.91665 1040.2947,210.15047 C 1038.3744,220.89297 1037.3211,231.74752 1036.4315,242.61257 C 1035.8489,249.98088 1035.9011,257.37383 1035.8529,264.75813 C 1035.7458,272.22087 1035.7824,279.68444 1035.7979,287.14756 C 1035.7154,295.36673 1035.7701,303.58592 1035.8125,311.80508 C 1035.6924,319.72968 1035.7942,327.65543 1035.8493,335.58017 C 1036.8556,343.76088 1033.8803,350.27044 1031.0032,357.51098 C 1023.6263,366.57238 1014.4172,373.88994 1005.4226,381.26748 C 996.4281,388.04106 988.00696,395.47141 979.88192,403.24597 C 973.95753,408.44776 969.73709,415.01809 965.24195,421.36358 C 960.2346,429.94738 957.05707,439.42139 953.73713,448.73695 C 950.07665,459.0725 948.75532,469.84032 947.6549,480.668 C 946.75361,493.63757 946.88377,506.64727 946.91235,519.63897 C 946.32944,530.69312 948.86269,541.48106 950.72607,552.29324 C 951.61342,560.72799 953.92477,568.88615 956.03641,577.06762 L 919.17812,596.9827 C 917.04741,588.6554 914.74504,580.33137 913.97411,571.73736 C 912.16019,560.68869 909.59952,549.6628 910.10189,538.39252 C 910.17898,525.32733 910.17106,512.25825 910.61444,499.19896 C 911.54154,488.13121 912.49518,477.09202 916.19717,466.50948 C 919.31772,456.9697 922.56038,447.41093 926.95445,438.34394 C 931.29287,431.5941 935.24162,424.61468 941.35548,419.18332 C 949.49916,411.18457 957.91125,403.50026 967.0921,396.68325 C 975.89947,389.55846 984.63584,382.44899 992.59905,374.36878 C 996.22384,367.91323 999.41941,362.55544 998.43673,354.64278 C 998.49168,346.70592 998.59426,338.76801 998.47271,330.83132 C 998.51111,322.61268 998.56574,314.39392 998.46487,306.17541 C 998.45941,298.72791 998.46208,291.28024 998.37213,283.8331 C 998.48977,276.30687 998.54333,268.7762 999.07865,261.2637 C 1000.1559,250.38798 1001.534,239.55314 1002.8319,228.70179 C 1003.3943,223.7678 1004.2511,218.80642 1003.8022,213.84147 L 1041.912,194.42356 z "
         id="path6383"
         style="opacity:1;fill:black;fill-opacity:1;fill-rule:evenodd;stroke:#000100;stroke-width:15.60000038;stroke-linecap:butt;stroke-linejoin:miter;stroke-miterlimit:4;stroke-dasharray:none;stroke-opacity:1" />
      <path
         d="M 1070.4835,802.99499 C 1070.4276,802.18134 1073.558,807.32434 1074.5794,808.76275 C 1076.763,813.57756 1079.2033,818.24662 1081.5428,822.98023 C 1083.2557,827.04772 1086.4272,830.17345 1088.9285,833.67025 C 1092.6385,837.67437 1097.8936,839.04084 1102.6916,841.16691 C 1110.203,843.70962 1117.9187,845.5314 1125.5036,847.87459 C 1134.1827,850.34624 1143.1767,850.70128 1152.1059,851.34559 C 1158.3645,851.55334 1164.6272,851.47675 1170.8878,851.45499 C 1177.3984,851.1015 1182.8525,848.73537 1188.6959,846.26626 C 1203.7657,839.57173 1230.5634,822.9697 1166.9602,859.56738 C 1171.7453,856.3849 1175.7696,852.27333 1179.9902,848.41865 C 1185.1286,844.04843 1190.0671,839.5472 1194.9159,834.89288 C 1198.4157,831.16746 1201.0106,826.746 1203.8474,822.53125 C 1207.6612,816.46781 1211.0279,810.18279 1214.4316,803.8977 C 1216.0356,800.8749 1216.3607,797.42902 1217.3195,794.21407 L 1255.1297,775.86352 C 1254.2532,779.373 1254.0369,783.08731 1252.491,786.42944 C 1249.3862,792.84354 1246.5256,799.34581 1242.3736,805.19205 C 1239.6489,809.73746 1237.1421,814.42888 1233.7716,818.60457 C 1229.1207,823.6608 1224.4332,828.36236 1218.852,832.44338 C 1214.7459,836.39733 1210.7573,840.54648 1206.2436,843.99295 C 1189.4275,853.93938 1173.6234,864.91848 1155.7047,872.43539 C 1149.5178,874.22021 1143.4123,876.38914 1136.8069,876.22654 C 1130.5512,876.18685 1124.2891,876.2317 1118.0452,875.77 C 1109.0167,874.79157 1099.9252,874.05937 1091.173,871.41957 C 1083.3633,869.18868 1075.4196,867.44518 1067.7627,864.71962 C 1062.4346,862.2018 1056.8884,860.14236 1052.8212,855.62973 C 1049.9431,851.79121 1046.6888,848.20549 1044.7643,843.71429 C 1042.531,839.1604 1040.2446,834.63826 1038.0255,830.07232 C 1036.1402,827.51733 1034.0352,825.12426 1032.3737,822.4129 L 1070.4835,802.99499 z "
         id="path6385"
         style="opacity:1;fill:black;fill-opacity:1;fill-rule:evenodd;stroke:#000100;stroke-width:15.60000038;stroke-linecap:butt;stroke-linejoin:miter;stroke-miterlimit:4;stroke-dasharray:none;stroke-opacity:1" />
      <path
         d="M 1216.1978,865.85214 C 1215.7735,871.6576 1215.8519,877.48529 1215.7985,883.30216 C 1215.8404,891.28103 1215.8037,899.25881 1215.7372,907.23743 C 1215.7896,916.35544 1215.7275,925.47322 1215.6778,934.59112 C 1215.6214,945.59197 1215.6135,956.59297 1215.6028,967.59393 C 1215.4042,980.48028 1215.4989,993.36868 1215.5759,1006.2555 C 1216.1393,1015.0488 1213.1208,1022.8636 1210.3162,1030.8611 C 1198.8046,1047.252 1178.1237,1053.4786 1161.1389,1063.3632 C 1186.423,1048.4963 1216.7997,1031.5366 1148.1579,1070.2294 L 1180.9734,1044.0958 C 1158.2436,1057.4235 1122.9221,1078.045 1193.8554,1036.8846 C 1100.2123,1091.6066 1164.0278,1056.6294 1171.8957,1047.9938 C 1175.3867,1040.6322 1178.8953,1033.659 1178.7098,1025.0397 C 1178.7863,1012.162 1178.8824,999.28275 1178.6829,986.40554 C 1178.6722,975.43006 1178.6644,964.45454 1178.6079,953.47917 C 1178.5581,944.38145 1178.496,935.28385 1178.5485,926.186 C 1178.491,918.2282 1178.4385,910.27126 1178.4872,902.31319 C 1178.4346,896.63217 1178.5214,890.93877 1178.088,885.27004 L 1216.1978,865.85214 z "
         id="path6387"
         style="opacity:1;fill:black;fill-opacity:1;fill-rule:evenodd;stroke:#000100;stroke-width:15.60000038;stroke-linecap:butt;stroke-linejoin:miter;stroke-miterlimit:4;stroke-dasharray:none;stroke-opacity:1" />
      <path
         d="M 1079.0549,862.99499 C 1079.0081,867.31562 1077.8259,871.49413 1076.9158,875.69109 C 1075.3771,881.792 1073.8983,887.90079 1072.3295,893.9945 C 1070.4066,901.82875 1070.3781,909.92217 1070.1137,917.93391 C 1069.9428,926.25452 1070.0426,934.57757 1070.065,942.89907 C 1070.0567,950.5782 1070.0974,958.25716 1070.1054,965.93627 C 1070.0546,973.68966 1070.0848,981.44277 1070.1147,989.19613 C 1070.1642,995.46525 1070.1778,1001.7345 1070.1957,1008.0038 C 1071.1689,1013.5309 1069.4255,1018.6878 1068.6039,1023.904 C 1066.4126,1029.2295 1061.5986,1031.4587 1057.2907,1034.739 C 1042.9942,1046.29 1026.953,1053.6669 1010.6135,1063.0845 L 1043.5589,1036.6174 C 981.78023,1072.6063 1005.373,1059.8796 1018.2198,1050.5069 C 1022.2663,1047.7223 1026.6011,1044.779 1030.0384,1041.345 C 1031.5114,1036.5866 1034.0704,1032.7233 1032.6616,1027.1283 C 1032.6796,1020.8315 1032.6935,1014.5347 1032.7429,1008.238 C 1032.7722,1000.4832 1032.8035,992.72868 1032.7465,984.97387 C 1032.744,977.29057 1032.7768,969.60725 1032.7397,961.92396 C 1032.7521,953.55335 1032.7781,945.18304 1032.8636,936.81278 C 1033.0505,928.59589 1033.0599,920.32301 1034.3729,912.1898 C 1036.0351,906.1022 1037.4591,899.98093 1038.9587,893.85243 C 1039.798,890.08756 1040.9924,886.24832 1040.9451,882.4129 L 1079.0549,862.99499 z "
         id="path6389"
         style="opacity:1;fill:black;fill-opacity:1;fill-rule:evenodd;stroke:#000100;stroke-width:15.60000038;stroke-linecap:butt;stroke-linejoin:miter;stroke-miterlimit:4;stroke-dasharray:none;stroke-opacity:1" />
      <path
         d="M 1135.7039,118.68201 C 1140.3749,124.43585 1146.3523,128.91015 1152.0428,133.57806 C 1162.4237,139.4911 1172.4318,145.98334 1182.5818,152.2786 C 1194.6397,159.47109 1207.7847,163.5856 1221.283,166.91738 C 1231.4106,168.75121 1241.7004,168.63646 1251.9425,168.78099 C 1261.8166,169.67318 1270.4617,166.65015 1279.3938,163.05007 C 1219.1138,202.19426 1265.3303,168.65585 1277.8592,156.05517 C 1291.3772,134.1749 1296.6402,108.4234 1299.4133,83.157267 C 1300.1429,56.174763 1291.8575,31.195014 1277.4233,8.7529299 C 1249.5529,-19.30153 1212.1901,-33.763665 1174.6714,-43.734905 C 1138.7331,-46.995056 1102.3756,-40.612302 1071.15,-22.301261 C 1109.6182,-40.382144 1077.9632,11.432343 1081.1284,41.843744 C 1092.2489,69.993397 1113.8704,91.597733 1135.212,112.28459 C 1134.8767,112.81356 1145.342,121.34991 1146.1739,122.09436 L 1111.1342,143.81354 C 1109.8589,142.51798 1101.1988,134.39891 1100.7956,133.31098 C 1080.1742,110.84397 1059.5406,87.763367 1045.9125,60.215607 C 1041.4365,9.9957127 1056.0744,-20.11754 1101.9674,-47.159253 C 1134.194,-63.839857 1170.5354,-69.029476 1206.5515,-65.578008 C 1244.6259,-54.102166 1281.7119,-37.826239 1311.8641,-11.305129 C 1326.2828,12.135493 1334.3301,37.672771 1335.3275,65.372019 C 1332.2557,91.05345 1326.0411,116.40447 1315.7114,140.17776 C 1295.535,161.50531 1274.4523,176.18178 1246.5948,188.90397 C 1237.2598,191.92277 1227.9822,194.01779 1218.0396,193.34715 C 1207.7325,192.86899 1197.375,192.62091 1187.2367,190.45024 C 1173.5474,186.43682 1160.223,181.58714 1147.6639,174.67601 C 1137.4851,168.15492 1127.305,161.67628 1116.7361,155.79962 C 1110.8702,150.92201 1104.9698,146.08 1099.2653,141.0116 L 1135.7039,118.68201 z "
         id="path6391"
         style="opacity:1;fill:black;fill-opacity:1;fill-rule:evenodd;stroke:#000100;stroke-width:15.60000038;stroke-linecap:butt;stroke-linejoin:miter;stroke-miterlimit:4;stroke-dasharray:none;stroke-opacity:1" />
    </g>
    <g
       id="g6419"
       transform="matrix(4.313547e-2,0,0,4.372327e-2,160.8468,373.3131)">
      <path
         style="opacity:1;fill:black;fill-opacity:1;fill-rule:evenodd;stroke:#000100;stroke-width:15.60000038;stroke-linecap:butt;stroke-linejoin:miter;stroke-miterlimit:4;stroke-dasharray:none;stroke-opacity:1"
         id="path6403"
         d="M 1162.3591,998.70887 C 1162.6804,1003.7035 1163.8006,1008.801 1164.7495,1013.7607 C 1165.7875,1021.784 1165.7826,1029.8793 1165.9775,1037.9505 C 1166.0535,1046.0805 1166.0261,1054.211 1166.0207,1062.3412 C 1166.0101,1070.426 1166.0081,1078.5108 1166.0047,1086.5956 C 1166.0027,1094.6763 1166.0032,1102.757 1166.003,1110.8377 C 1166.003,1118.9188 1166.0031,1126.9999 1166.0031,1135.0811 C 1167.3388,1143.0961 1164.5126,1150.258 1162.924,1157.82 C 1159.6626,1167.0414 1154.4607,1175.2711 1149.5815,1183.6647 C 1144.526,1193.1789 1137.6262,1201.4337 1131.0349,1209.8802 C 1124.777,1218.7004 1117.5271,1226.6441 1110.3122,1234.6452 C 1088.8641,1254.4761 1061.2706,1265.8756 1036.1289,1280.1073 C 1027.8395,1285.4219 1018.3141,1286.015 1008.893,1287.4732 C 999.62888,1288.2783 990.32357,1288.0986 981.03583,1288.1049 C 971.75897,1288.5379 962.51826,1287.8181 953.31473,1287.3012 C 942.89551,1286.1148 933.53754,1281.4928 924.00856,1277.4886 C 914.33962,1273.0627 905.75986,1266.8863 897.0352,1260.9372 C 889.10037,1255.7992 881.39132,1250.4472 873.70116,1244.9713 C 865.80578,1238.6398 859.57861,1230.6881 852.99649,1223.0851 C 844.33362,1214.3674 836.57867,1204.8491 828.89407,1195.2811 C 821.97562,1187.3217 816.31269,1178.4462 810.48762,1169.7018 C 805.6809,1162.9089 800.95151,1156.0473 796.15561,1149.2326 C 791.93669,1139.7044 786.48175,1141.6376 778.24785,1138.6941 C 767.08247,1139.1039 757.39452,1135.2236 747.25616,1131.4276 C 735.02045,1125.4556 722.08287,1121.1766 709.30694,1116.5224 C 694.21696,1112.3468 679.31678,1107.5598 664.50218,1102.5112 C 650.70712,1097.3455 636.06176,1095.6283 621.66168,1093.0017 C 607.0835,1090.5592 592.29198,1090.3104 577.55549,1089.9589 C 562.51595,1089.7042 547.47316,1089.7555 532.43212,1089.7744 C 519.41035,1089.2888 506.73773,1092.2491 494.03844,1094.4972 C 486.72794,1097.4856 479.69954,1101.0212 472.47201,1104.2137 C 487.78142,1095.5095 503.09082,1086.8053 518.40023,1078.101 C 516.87855,1079.0617 515.35686,1080.0223 513.83518,1080.983 C 505.77273,1085.9546 498.24344,1091.6095 490.72264,1097.3347 C 483.76863,1103.1093 478.08263,1110.2266 472.10285,1116.9642 C 466.40661,1123.6491 460.55348,1130.1983 454.83348,1136.8668 C 449.47802,1143.7351 444.33034,1150.7396 439.21461,1157.7791 C 434.58749,1164.916 431.46302,1172.8908 428.00209,1180.6306 C 424.81244,1187.8326 423.66582,1195.6586 422.0176,1203.297 C 419.64211,1210.1069 419.56698,1217.2878 418.77288,1224.3507 C 418.69261,1224.4258 418.53833,1232.1119 418.53718,1232.15 L 365.3714,1259.1255 C 365.41452,1256.4757 365.40608,1253.8252 365.50076,1251.1763 C 366.06158,1243.7442 365.91475,1236.198 368.08542,1228.973 C 369.8379,1221.1116 371.61528,1213.2104 373.91557,1205.4684 C 377.37164,1197.4677 380.75623,1189.4139 384.6824,1181.6373 C 389.64858,1174.3753 394.58339,1167.1762 400.16138,1160.3784 C 405.74574,1153.5923 411.12177,1146.4967 417.48922,1140.3001 C 423.39842,1133.3133 429.18387,1126.1763 435.45733,1119.4809 C 442.91264,1113.3928 450.48894,1107.6357 458.62317,1102.4766 C 485.49756,1086.806 511.03781,1067.5713 541.18156,1058.7798 C 553.9906,1056.6496 566.87831,1054.7183 579.92147,1055.2642 C 595.04054,1055.2639 610.16091,1055.1893 625.27812,1055.4843 C 640.15809,1056.1254 655.11601,1056.5325 669.79795,1059.2735 C 684.39979,1061.9031 699.12306,1064.1582 713.00159,1069.6645 C 727.90935,1074.5451 742.89866,1079.1432 757.9192,1083.6651 C 770.94176,1088.3753 784.05436,1092.8446 796.72831,1098.4441 C 806.54561,1101.5613 816.13242,1104.6047 826.67398,1104.58 C 835.80662,1108.1362 842.93864,1108.9553 847.58807,1118.9257 C 852.28611,1125.8298 856.88546,1132.8116 861.79575,1139.5604 C 867.37921,1148.224 872.76191,1157.0262 879.52472,1164.8619 C 887.14723,1174.4338 894.98239,1183.8088 903.64775,1192.4751 C 910.10002,1199.7102 916.20991,1207.2329 924.02183,1213.1099 C 931.68849,1218.5324 939.37555,1223.8985 947.14033,1229.1979 C 955.63008,1234.7324 963.94703,1240.6329 973.33933,1244.6324 C 982.59713,1248.1343 991.62824,1252.3598 1001.7175,1252.8803 C 1010.8365,1253.0456 1019.9637,1253.2754 1029.0915,1253.1772 C 1038.2394,1253.0231 1047.4242,1253.1684 1056.512,1251.9063 C 1065.5999,1249.8229 1074.5909,1248.1824 1082.6315,1243.0008 C 1018.8627,1280.1109 1029.8432,1276.7283 1055.3634,1257.1259 C 1062.9266,1249.6148 1070.3942,1242.1272 1076.7505,1233.5019 C 1083.1594,1225.1536 1089.8675,1216.857 1095.3566,1207.813 C 1100.2917,1199.7956 1105.2847,1191.7828 1108.8113,1183.0186 C 1111.0453,1176.027 1114.1602,1169.8174 1112.901,1162.138 C 1112.9009,1154.0568 1112.9009,1145.9757 1112.9008,1137.8946 C 1112.9009,1129.8134 1112.9004,1121.7323 1112.9018,1113.6512 C 1112.9047,1105.5644 1112.9058,1097.4776 1112.9173,1089.3908 C 1112.9275,1081.2822 1112.9525,1073.1735 1112.9122,1065.0649 C 1112.7246,1057.2369 1112.8651,1049.383 1111.9297,1041.5914 C 1110.7209,1036.4916 1110.4007,1031.0662 1108.4638,1026.1699 L 1162.3591,998.70887 z " />
      <path
         style="opacity:1;fill:black;fill-opacity:1;fill-rule:evenodd;stroke:#000100;stroke-width:15.60000038;stroke-linecap:butt;stroke-linejoin:miter;stroke-miterlimit:4;stroke-dasharray:none;stroke-opacity:1"
         id="path6405"
         d="M 1112.5044,1114.0967 C 1112.8245,1108.966 1112.7689,1103.8213 1112.8503,1098.6838 C 1112.9049,1090.7309 1112.8981,1082.7778 1112.904,1074.8248 C 1112.9044,1066.7057 1112.9029,1058.5866 1112.902,1050.4675 C 1112.9197,1040.8299 1113.0172,1031.1927 1113.0844,1021.5552 C 1113.3149,1010.2533 1111.541,999.03639 1110.2209,987.83947 C 1109.1941,979.54273 1106.746,971.55532 1104.7907,963.48784 C 1102.2124,956.85719 1099.1821,950.45104 1096.3367,943.94074 C 1094.2285,936.86815 1090.1292,930.61191 1086.6069,924.17427 C 1082.2029,914.26725 1077.1966,904.69293 1072.174,895.09889 C 1066.1477,885.23771 1061.3598,874.71829 1056.3434,864.33759 C 1050.8204,852.69908 1043.7668,841.99178 1036.5265,831.38098 C 1032.0534,822.86591 1025.9634,815.42485 1020.4141,807.67071 C 1015.2536,800.73291 1010.3927,793.61694 1005.2405,786.67448 C 1000.5297,778.67921 993.58695,772.74702 987.02041,766.42838 C 979.59212,760.4525 973.21659,753.60343 966.90723,746.51831 C 963.66267,741.16811 958.4935,737.58764 954.13851,733.41599 L 1004.6273,701.46522 C 1009.17,706.15663 1014.376,710.33631 1018.0167,715.9066 C 1024.0948,722.65494 1030.217,729.26734 1037.2887,735.03997 C 1044.1684,741.70069 1051.5598,747.89838 1056.4441,756.32378 C 1061.5108,763.20144 1066.2937,770.2873 1071.6106,776.96812 C 1077.1962,784.90107 1082.669,792.9018 1087.4336,801.38661 C 1094.7475,812.38279 1101.8631,823.4883 1107.7606,835.32945 C 1112.7869,845.56341 1117.6585,855.8943 1123.6462,865.62536 C 1128.5918,875.163 1133.4335,884.71778 1138.0481,894.4242 C 1141.8848,901.00975 1146.4401,907.38644 1148.5028,914.79166 C 1151.3613,921.45678 1154.3153,928.05999 1157.129,934.75011 C 1159.1402,943.25627 1161.6284,951.66759 1162.827,960.3859 C 1163.9929,971.79607 1165.632,983.22154 1165.8198,994.68522 C 1165.887,1004.2607 1165.9847,1013.8359 1166.0022,1023.4116 C 1166.0012,1031.5314 1165.9997,1039.6512 1166.0002,1047.771 C 1166.006,1055.7057 1165.9991,1063.6406 1166.0538,1071.5752 C 1166.1347,1076.5952 1166.0739,1081.623 1166.3998,1086.6356 L 1112.5044,1114.0967 z " />
      <path
         style="opacity:1;fill:black;fill-opacity:1;fill-rule:evenodd;stroke:#000100;stroke-width:15.60000038;stroke-linecap:butt;stroke-linejoin:miter;stroke-miterlimit:4;stroke-dasharray:none;stroke-opacity:1"
         id="path6407"
         d="M 942.79875,726.19813 C 957.21303,712.7782 1066.9793,652.04532 951.65068,717.98498 C 957.48878,715.28069 960.84559,710.06998 965.05296,705.5512 C 969.84277,699.10467 972.11441,691.32159 974.84008,683.86957 C 978.16001,677.02827 978.22414,669.53059 979.27226,662.20579 C 979.71663,654.25674 979.58113,646.29294 979.61686,638.33611 C 980.01349,631.50227 977.91568,624.93092 976.49766,618.35119 C 975.60156,612.34004 971.65685,607.79362 969.06152,602.61191 C 966.48753,597.547 962.3651,593.56688 958.719,589.2344 C 955.29404,584.31246 950.87131,580.26343 946.81407,575.88721 C 940.60183,571.22193 935.0495,565.78516 929.2838,560.60893 C 923.5221,555.11249 917.48251,549.94727 911.5748,544.59474 C 905.36054,538.65756 898.10792,533.99367 891.29008,528.85205 C 883.44393,524.57784 874.76931,522.69052 866.22206,520.45404 C 857.98888,517.61415 849.36622,517.23746 840.79508,516.49365 C 830.9449,515.09888 821.67575,517.20699 812.15073,519.03982 C 802.21117,521.05869 793.13202,525.44481 783.90189,529.44532 C 761.02552,540.57106 741.26599,552.02937 808.14784,516.16683 C 800.66106,522.01234 795.35212,529.72225 789.71528,537.11827 C 784.26978,545.64473 783.79221,555.27164 782.4407,564.93888 C 781.69374,576.49363 781.86364,588.07946 781.86109,599.65084 C 781.41837,609.55643 782.2637,619.36568 783.02939,629.1925 C 783.3662,637.09707 787.7984,643.2287 791.08783,650.02759 C 794.9423,656.62578 799.75822,662.51031 804.28994,668.60279 C 809.0798,675.63582 816.67526,677.58106 823.47217,681.39098 C 833.07673,683.48884 842.5795,685.89654 852.13787,688.16498 C 861.0228,691.14256 870.12637,692.82414 879.30303,694.52306 C 887.58466,695.50447 895.93032,695.40292 904.25246,695.50257 C 912.33116,695.49896 920.40985,695.47355 928.48853,695.45343 C 939.93703,700.77017 936.95048,703.28859 934.23314,714.42314 C 926.91208,722.99355 918.05432,730.25839 909.84552,738.046 C 903.47881,745.12896 897.4677,752.53266 891.281,759.77197 C 884.98561,766.68026 878.1212,773.03096 871.4692,779.58823 C 864.93735,785.84704 858.58969,792.24174 852.2999,798.71921 C 845.11954,807.30894 838.22353,816.12529 831.18442,824.82787 C 820.75979,837.38198 809.88002,849.5533 799.17862,861.87104 C 789.28566,873.7327 781.36274,886.94288 773.44504,900.14399 C 765.0985,913.09193 757.85713,926.68931 750.19299,940.04044 C 745.08984,949.45362 738.55114,957.95925 732.316,966.63346 C 727.22992,973.91229 721.63159,980.80123 716.19714,987.80758 C 712.78233,993.1948 707.42032,996.49543 702.8702,1000.6687 C 697.423,1004.0818 692.83309,1008.5873 687.90973,1012.6638 C 669.60332,1031.9444 643.04533,1038.4024 620.72906,1050.8092 L 667.54114,1013.6809 C 655.89362,1020.8299 644.98895,1029.3666 632.58888,1035.1121 C 637.41112,1030.8057 642.14297,1026.5675 647.10747,1022.4816 C 651.92902,1018.7595 657.60694,1016.4161 661.28282,1011.2559 C 666.98019,1004.3678 672.67479,997.50988 677.88474,990.21276 C 683.97979,981.41543 690.74419,973.21472 696.29918,964.07394 C 704.25121,950.7145 711.65995,937.04623 719.8579,923.83083 C 727.77045,910.4077 735.57402,896.91229 745.35797,884.71789 C 755.89277,872.44611 766.64896,860.33426 776.92198,847.85346 C 783.94866,839.34655 790.60375,830.58078 797.56327,822.02391 C 803.60784,815.03915 809.68303,808.33846 816.53234,802.18522 C 823.31343,795.75589 830.0727,789.34037 836.40947,782.596 C 842.83545,775.47044 849.36956,768.51932 855.15141,760.82438 C 862.96739,752.91736 870.67465,744.97863 879.71674,738.44132 C 879.93477,735.36173 890.83828,728.3809 880.27933,730.49518 C 872.18916,730.50874 864.09868,730.55915 856.0087,730.47986 C 847.53283,730.21629 839.01935,730.20344 830.63721,728.71315 C 821.41236,726.62458 812.18778,724.5929 803.13255,721.79033 C 793.42411,719.54224 783.63821,717.47632 774.07519,714.65752 C 766.46865,710.33973 758.81847,706.64257 753.22874,699.46483 C 748.54961,692.99776 743.54212,686.73918 739.47703,679.80855 C 735.4739,672.49144 731.09337,665.59351 730.43769,656.99992 C 729.50561,646.84882 728.45955,636.78355 729.15408,626.51986 C 729.16752,614.83376 729.05528,603.14357 729.46346,591.46194 C 730.45156,581.16549 730.4981,570.76558 735.44491,561.34642 C 740.64124,552.92128 745.5998,545.04071 753.17979,538.31071 C 778.31457,522.75438 802.55483,503.99124 830.3477,492.61369 C 839.84491,488.88805 849.21812,484.89423 859.33606,483.08011 C 869.26344,481.98135 879.08558,480.47801 889.1337,481.86654 C 897.9536,482.9921 906.80627,483.81086 915.26493,486.85555 C 924.25995,489.45328 933.4705,491.53296 941.46153,496.69759 C 948.45508,502.00254 955.49456,507.25292 962.06833,513.09685 C 968.18393,518.41781 974.19805,523.7944 980.05767,529.39692 C 985.98205,534.60228 991.82014,539.91199 997.93456,544.90736 C 1002.075,549.29048 1006.5949,553.33532 1010.0314,558.34631 C 1013.7529,562.92439 1018.1667,567.02559 1020.7539,572.39067 C 1023.8498,577.97336 1027.6077,583.12532 1028.9162,589.56261 C 1030.5551,596.68569 1032.9794,603.84224 1032.7141,611.26798 C 1032.7128,619.32607 1032.8157,627.3867 1032.5597,635.44238 C 1031.7899,643.30503 1031.9692,651.33343 1028.9419,658.81486 C 1026.0746,666.5565 1023.3514,674.34678 1019.9395,681.8792 C 1016.1284,686.87573 1012.9094,692.72979 1007.4839,696.1186 C 884.9783,767.13877 984.30073,710.03451 996.69413,698.73707 L 942.79875,726.19813 z " />
      <path
         style="opacity:1;fill:black;fill-opacity:1;fill-rule:evenodd;stroke:#000100;stroke-width:15.60000038;stroke-linecap:butt;stroke-linejoin:miter;stroke-miterlimit:4;stroke-dasharray:none;stroke-opacity:1"
         id="path6411"
         d="M 675.48955,1034.5851 C 683.56872,1034.9309 691.62496,1033.7147 699.69217,1033.0842 C 720.53686,1032.0888 741.21382,1029.0017 761.90376,1026.4103 C 779.99565,1024.388 798.01419,1021.7497 815.95989,1018.715 C 831.7042,1016.6352 847.40688,1014.3072 863.17524,1012.4049 C 875.6245,1011.7141 886.48714,1006.8772 897.6769,1002.2586 C 907.44729,996.9907 917.35074,992.05192 927.39451,987.30324 C 915.09881,974.337 866.60008,1031.6762 908.76298,993.25228 C 919.29553,983.02886 927.6762,971.02327 935.88358,958.94986 C 942.842,946.496 948.45821,933.36976 954.24857,920.34999 C 959.97602,908.6433 961.25986,895.96093 963.07319,883.31374 C 964.00561,869.46546 963.87325,855.57271 963.88363,841.70129 C 963.98933,829.70061 963.57557,817.70479 963.17634,805.72811 C 962.39108,795.90647 959.90629,786.36792 957.70206,776.79906 C 957.34,775.619 956.97794,774.43895 956.61587,773.2589 L 1008.8999,744.63677 C 1009.3184,746.0132 1009.7369,747.38963 1010.1554,748.76606 C 1012.2876,758.55505 1014.7094,768.29837 1015.7841,778.27617 C 1016.1518,790.48738 1016.6041,802.75254 1016.2407,815.00954 C 1016.2841,828.97784 1016.4993,842.95356 1015.9375,856.9149 C 1014.6884,870.25265 1013.0341,883.42395 1007.6323,895.87444 C 1001.7486,909.0572 996.25368,922.33111 989.72129,935.21749 C 981.72117,947.72551 973.32922,959.95579 963.10702,970.8113 C 939.62645,993.95492 912.41135,1011.02 881.27581,1024.0659 C 871.21466,1029.0118 861.35888,1034.327 851.28134,1039.2329 C 839.75557,1042.9471 828.32001,1046.8147 816.02434,1047.4892 C 800.39479,1049.4659 784.79026,1051.6365 769.19025,1053.8377 C 751.3535,1056.6588 733.46684,1059.193 715.49228,1060.984 C 694.54116,1063.6152 673.60868,1066.4878 652.53508,1067.9806 C 643.89424,1068.9665 635.26474,1070.1215 626.55358,1070.1392 L 675.48955,1034.5851 z " />
    </g>
    <g
       id="g7512"
       transform="matrix(0.168657,0,0,8.233484e-2,468.701,337.5544)">
      <path
         style="fill:none;fill-rule:evenodd;stroke:black;stroke-width:8.11900043;stroke-linecap:butt;stroke-linejoin:miter;marker-start:url(#Arrow1Lstart);marker-mid:url(#Arrow1Lstart);marker-end:url(#Arrow1Lstart);stroke-miterlimit:4;stroke-dasharray:8.119, 32.476;stroke-dashoffset:0;stroke-opacity:1"
         d="M -1770.5276,632.87912 L -1330.6296,257.83802"
         id="path7508" />
      <path
         id="path7510"
         d="M -1334.1417,253.06176 L -894.2437,-121.97934"
         style="fill:none;fill-rule:evenodd;stroke:black;stroke-width:8.11900043;stroke-linecap:butt;stroke-linejoin:miter;marker-start:url(#Arrow1Lstart);marker-mid:url(#Arrow1Lstart);marker-end:url(#Arrow1Lstart);stroke-miterlimit:4;stroke-dasharray:8.119, 32.476;stroke-dashoffset:0;stroke-opacity:1" />
    </g>
    <g
       transform="matrix(-5.125448e-2,0,0,1.37413e-2,601.7185,324.9514)"
       id="g7516">
      <path
         id="path7518"
         d="M -1770.5276,632.87912 L -1330.6296,257.83802"
         style="fill:none;fill-rule:evenodd;stroke:black;stroke-width:8.11900043;stroke-linecap:butt;stroke-linejoin:miter;marker-start:url(#Arrow1Lstart);marker-mid:url(#Arrow1Lstart);marker-end:url(#Arrow1Lstart);stroke-miterlimit:4;stroke-dasharray:8.119, 32.476;stroke-dashoffset:0;stroke-opacity:1" />
      <path
         style="fill:none;fill-rule:evenodd;stroke:black;stroke-width:8.11900043;stroke-linecap:butt;stroke-linejoin:miter;marker-start:url(#Arrow1Lstart);marker-mid:url(#Arrow1Lstart);marker-end:url(#Arrow1Lstart);stroke-miterlimit:4;stroke-dasharray:8.119, 32.476;stroke-dashoffset:0;stroke-opacity:1"
         d="M -1334.1417,253.06176 L -894.2437,-121.97934"
         id="path7520" />
    </g>
  </g>
</svg>
