<?xml version="1.0" standalone="no"?>
<!DOCTYPE svg PUBLIC "-//W3C//DTD SVG 20010904//EN"
 "http://www.w3.org/TR/2001/REC-SVG-20010904/DTD/svg10.dtd">
<svg version="1.0" xmlns="http://www.w3.org/2000/svg"
 width="1404.000000pt" height="1386.000000pt" viewBox="0 0 1404.000000 1386.000000"
 preserveAspectRatio="xMidYMid meet">
<metadata>
Created by potrace 1.14, written by Peter Selinger 2001-2017
</metadata>
<g transform="translate(0.000000,1386.000000) scale(0.100000,-0.100000)"
fill="#000000" stroke="none">
<path d="M5109 13657 c-19 -12 -43 -39 -54 -59 -18 -34 -18 -42 -7 -110 33
-193 137 -615 338 -1371 81 -302 145 -550 143 -552 -7 -6 -815 -388 -891 -421
-183 -78 -307 -101 -383 -70 -61 26 -125 97 -303 341 -363 495 -462 623 -535
691 -117 109 -221 150 -267 104 -19 -19 -22 -30 -17 -75 7 -67 63 -203 139
-335 76 -132 125 -203 278 -410 211 -285 390 -568 390 -618 0 -10 -53 -60
-127 -119 -71 -56 -204 -165 -298 -243 -196 -163 -269 -216 -337 -242 -137
-52 -254 -1 -598 262 -670 510 -987 741 -1106 806 -82 46 -149 54 -186 24 -57
-44 -24 -115 121 -259 201 -199 410 -364 1011 -795 250 -180 456 -330 457
-334 2 -4 -103 -133 -233 -287 -130 -154 -280 -338 -334 -410 -205 -273 -360
-537 -423 -721 -48 -138 -83 -202 -127 -232 -31 -21 -43 -23 -110 -19 -88 6
-156 28 -445 145 -337 136 -581 214 -722 228 -54 6 -63 4 -83 -16 -20 -20 -22
-30 -18 -94 6 -88 39 -158 100 -211 50 -43 246 -140 363 -180 44 -15 175 -51
292 -80 219 -55 296 -83 350 -129 48 -40 90 -136 104 -236 16 -115 7 -467 -31
-1165 -16 -308 -30 -572 -30 -586 0 -30 69 -17 -530 -94 -470 -61 -717 -131
-882 -252 -99 -72 -117 -203 -33 -241 37 -17 69 -15 155 9 112 31 397 93 645
140 202 39 234 42 390 43 163 1 172 0 225 -25 101 -48 169 -131 255 -313 138
-291 244 -664 216 -757 -41 -136 -282 -332 -616 -501 -411 -208 -635 -380
-635 -487 1 -83 66 -161 135 -161 71 0 313 129 670 355 412 261 634 376 687
356 59 -22 209 -173 361 -363 96 -120 475 -662 470 -672 -4 -6 -88 -90 -187
-186 -553 -536 -1024 -1001 -1142 -1130 -343 -376 -547 -668 -518 -744 4 -11
19 -16 43 -16 86 0 346 180 671 466 179 156 284 258 884 851 308 304 562 553
565 553 6 0 821 -657 850 -685 11 -11 -20 -73 -196 -387 -279 -496 -284 -505
-341 -638 -133 -309 -165 -502 -90 -538 42 -20 97 8 171 88 75 82 122 162 227
390 92 201 164 333 257 473 88 133 153 198 228 228 56 22 73 24 245 23 237 0
383 -25 785 -134 406 -111 526 -172 583 -298 25 -55 22 -292 -7 -497 -31 -217
-39 -522 -17 -624 24 -114 56 -135 131 -85 176 116 271 421 295 937 10 232 25
304 72 361 66 80 157 103 465 116 395 17 658 67 1053 200 300 101 384 110 506
50 109 -53 209 -177 699 -860 222 -310 245 -340 343 -442 98 -102 168 -151
209 -146 24 3 28 8 31 40 6 77 -112 369 -263 648 -40 74 -132 239 -204 365
-153 267 -335 628 -353 699 -12 47 -12 49 12 65 27 18 748 544 1109 809 128
95 236 172 240 172 3 0 243 -251 533 -557 517 -548 825 -860 1023 -1038 267
-240 425 -342 425 -275 0 59 -144 274 -369 550 -171 211 -297 353 -792 900
-216 239 -363 433 -422 557 -29 62 -32 77 -32 163 0 86 3 101 32 160 74 152
316 493 418 589 47 44 58 51 82 45 59 -14 289 -101 573 -216 610 -247 824
-326 853 -315 28 11 49 55 54 114 4 54 2 61 -26 95 -75 89 -293 226 -571 361
-561 271 -590 288 -656 374 -66 87 -67 189 -2 418 23 84 250 829 253 833 2 2
977 -96 1215 -123 248 -27 640 -24 730 6 234 78 -255 256 -955 349 -353 46
-515 71 -615 94 -239 55 -328 114 -374 249 -38 112 -46 493 -13 612 46 166
101 201 341 216 270 16 534 77 675 156 36 20 92 62 124 93 49 48 58 62 55 86
-9 81 -249 103 -643 59 -174 -20 -347 -19 -414 1 -107 31 -168 121 -221 324
-57 222 -120 612 -120 745 0 64 1 65 38 89 20 13 199 108 397 209 761 391 864
444 995 521 284 166 470 309 454 351 -15 38 -194 2 -459 -92 -275 -98 -452
-174 -1279 -552 -231 -106 -423 -193 -427 -194 -4 -1 -188 222 -409 496 l-401
498 183 192 c279 292 341 359 431 470 152 185 257 354 257 412 0 56 -90 20
-247 -99 -116 -88 -196 -160 -483 -435 -118 -113 -245 -234 -282 -269 l-66
-64 -384 338 c-210 185 -452 394 -535 463 -110 91 -153 132 -153 147 0 83 132
429 332 869 209 460 321 785 335 972 l6 73 -39 35 c-44 41 -107 64 -132 49
-22 -12 -159 -287 -386 -769 -209 -445 -294 -613 -370 -730 -128 -196 -236
-252 -436 -225 -199 27 -753 189 -809 236 -73 61 -131 334 -131 618 0 242 -83
528 -171 590 -52 36 -102 10 -133 -69 -34 -85 -47 -183 -56 -429 -18 -453 -65
-687 -147 -726 -118 -54 -713 -10 -975 73 -241 77 -331 225 -459 757 -27 113
-67 279 -89 370 -93 384 -213 716 -292 805 -37 42 -78 46 -129 12z m2161
-2527 c536 -24 1028 -128 1452 -306 411 -173 1028 -524 1223 -696 226 -198
664 -770 899 -1170 306 -523 404 -983 457 -2138 15 -327 6 -983 -15 -1170 -58
-503 -173 -834 -446 -1290 -309 -514 -609 -888 -920 -1146 -448 -371 -994
-715 -1510 -952 -708 -325 -1218 -452 -1815 -454 -548 0 -1099 116 -1684 356
-557 229 -1292 758 -1623 1169 -327 407 -748 1205 -892 1692 -108 367 -191
788 -248 1265 -30 254 -33 884 -5 1110 53 426 152 759 355 1190 258 551 717
1169 1057 1425 270 203 781 523 1020 640 274 134 689 284 935 338 302 67 894
125 1425 140 50 2 99 4 110 5 11 1 112 -3 225 -8z"/>
</g>
</svg>
